<?xml version="1.0" standalone="no"?>
<!DOCTYPE svg PUBLIC "-//W3C//DTD SVG 20010904//EN"
 "http://www.w3.org/TR/2001/REC-SVG-20010904/DTD/svg10.dtd">
<svg version="1.0" xmlns="http://www.w3.org/2000/svg"
 width="64.000000pt" height="64.000000pt" viewBox="0 0 64.000000 64.000000"
 preserveAspectRatio="xMidYMid meet">

<g transform="translate(0.000000,64.000000) scale(0.100000,-0.100000)"
fill="#000000" stroke="none">
<path d="M270 623 c-8 -3 -22 -11 -30 -19 -8 -7 -19 -13 -25 -13 -5 -1 -10 -5
-9 -11 1 -5 2 -34 4 -62 l3 -53 6 40 c5 29 10 39 21 36 44 -11 120 -12 140 -1
29 15 43 -2 34 -44 -4 -19 -3 -26 5 -22 16 10 14 72 -4 105 -20 41 -94 63
-145 44z"/>
<path d="M145 387 c-20 -17 -28 -35 -33 -72 l-5 -49 26 20 c14 12 46 29 71 38
47 18 54 32 36 67 -15 26 -62 25 -95 -4z"/>
<path d="M400 391 c-18 -35 -11 -49 36 -67 25 -9 57 -26 71 -38 l26 -20 -5 49
c-5 37 -13 55 -33 72 -33 29 -80 30 -95 4z"/>
</g>
</svg>
